<svg xmlns="http://www.w3.org/2000/svg" style="display: none;">
  <symbol id="icon-github" viewBox="0 0 24 24" fill="currentColor">
    <path d="M12 .297c-6.63 0-12 5.373-12 12 0 5.303 3.438 9.8 8.205 11.385.6.113.82-.258.82-.577 0-.285-.01-1.04-.015-2.04-3.338.724-4.042-1.61-4.042-1.61C4.422 18.07 3.633 17.7 3.633 17.7c-1.087-.744.084-.729.084-.729 1.205.084 1.838 1.236 1.838 1.236 1.07 1.835 2.809 1.305 3.495.998.108-.776.417-1.305.76-1.605-2.665-.3-5.466-1.332-5.466-5.93 0-1.31.465-2.38 1.235-3.22-.135-.303-.54-1.523.105-3.176 0 0 1.005-.322 3.3 1.23.96-.267 1.98-.399 3-.405 1.02.006 2.04.138 3 .405 2.28-1.552 3.285-1.23 3.285-1.23.645 1.653.24 2.873.12 3.176.765.84 1.23 1.91 1.23 3.22 0 4.61-2.805 5.625-5.475 5.92.42.36.81 1.096.81 2.22 0 1.606-.015 2.896-.015 3.286 0 .315.21.69.825.57C20.565 22.092 24 17.592 24 12.297c0-6.627-5.373-12-12-12"/>
  </symbol>
  <symbol id="icon-external" viewBox="0 0 24 24">
    <path d="M14 3h7v7M10 14L21 3M18 13v6a2 2 0 0 1-2 2H5a2 2 0 0 1-2-2V8a2 2 0 0 1 2-2h6" fill="none" stroke="currentColor" stroke-width="2" stroke-linecap="round" stroke-linejoin="round"/>
  </symbol>
  <symbol id="icon-email" viewBox="0 0 24 24" fill="currentColor">
    <path d="M20 4H4c-1.1 0-1.99.9-1.99 2L2 18c0 1.1.9 2 2 2h16c1.1 0 2-.9 2-2V6c0-1.1-.9-2-2-2zm0 4l-8 5-8-5V6l8 5 8-5v2z"/>
  </symbol>
  <symbol id="icon-phone" viewBox="0 0 24 24" fill="currentColor">
    <path d="M17 1.01L7 1c-1.1 0-2 .9-2 2v18c0 1.1.9 2 2 2h10c1.1 0 2-.9 2-2V3c0-1.1-.9-1.99-2-1.99zM17 19H7V5h10v14z"/>
  </symbol>
  <symbol id="icon-linkedin" viewBox="0 0 24 24" fill="currentColor">
    <path d="M19 0h-14c-2.761 0-5 2.239-5 5v14c0 2.761 2.239 5 5 5h14c2.762 0 5-2.239 5-5v-14c0-2.761-2.238-5-5-5zm-11 19h-3v-11h3v11zm-1.5-12.268c-.966 0-1.75-.79-1.75-1.764s.784-1.764 1.75-1.764 1.75.79 1.75 1.764-.783 1.764-1.75 1.764zm13.5 12.268h-3v-5.604c0-3.368-4-3.113-4 0v5.604h-3v-11h3v1.765c1.396-2.586 7-2.777 7 2.476v6.759z"/>
  </symbol>
  <symbol id="icon-facebook" viewBox="0 0 24 24" fill="currentColor">
    <path d="M24 12.073c0-6.627-5.373-12-12-12s-12 5.373-12 12c0 5.99 4.388 10.954 10.125 11.854v-8.385H7.078v-3.469h3.047V9.43c0-3.007 1.792-4.669 4.533-4.669 1.312 0 2.686.235 2.686.235v2.953H15.83c-1.491 0-1.956.925-1.956 1.874v2.25h3.328l-.532 3.469h-2.796v8.385C19.612 23.027 24 18.062 24 12.073z"/>
  </symbol>
  <symbol id="icon-instagram" viewBox="0 0 24 24" fill="currentColor">
    <path d="M12 0C8.74 0 8.333.015 7.053.072 5.775.132 4.905.333 4.14.63c-.789.306-1.459.717-2.126 1.384S.935 3.35.63 4.14C.333 4.905.131 5.775.072 7.053.012 8.333 0 8.74 0 12s.012 3.667.072 4.947c.06 1.277.261 2.148.558 2.913.306.788.717 1.459 1.384 2.126.667.666 1.336 1.079 2.126 1.384.766.296 1.636.499 2.913.558C8.333 23.988 8.74 24 12 24s3.667-.012 4.947-.072c1.277-.06 2.148-.262 2.913-.558.788-.306 1.459-.718 2.126-1.384.666-.667 1.079-1.335 1.384-2.126.296-.765.499-1.636.558-2.913.06-1.28.072-1.687.072-4.947s-.012-3.667-.072-4.947c-.06-1.277-.262-2.149-.558-2.913-.306-.789-.718-1.459-1.384-2.126C21.319 1.347 20.651.935 19.86.63c-.765-.297-1.636-.499-2.913-.558C15.667.012 15.26 0 12 0zm0 2.16c3.203 0 3.585.016 4.85.071 1.17.055 1.805.249 2.227.415.562.217.96.477 1.382.896.419.42.679.819.896 1.381.164.422.36 1.057.413 2.227.057 1.266.07 1.646.07 4.85s-.015 3.584-.071 4.85c-.055 1.171-.248 1.805-.413 2.227-.218.562-.478.96-.897 1.382-.42.419-.819.679-1.381.896-.422.165-1.056.36-2.227.413-1.266.057-1.646.07-4.85.07s-3.584-.015-4.85-.07c-1.171-.055-1.805-.248-2.227-.413-.562-.218-.96-.478-1.382-.897-.419-.42-.679-.819-.896-1.381-.165-.422-.36-1.056-.413-2.227-.057-1.266-.07-1.646-.07-4.85s.015-3.584.071-4.85c.055-1.171.248-1.805.413-2.227.218-.562.478-.96.897-1.382.42-.419.819-.679 1.381-.896.422-.165 1.057-.36 2.227-.413 1.266-.057 1.646-.07 4.85-.07zM12 5.837a6.162 6.162 0 100 12.324 6.162 6.162 0 000-12.324zM12 16a4 4 0 110-8 4 4 0 010 8zm6.406-11.845a1.44 1.44 0 100 2.881 1.44 1.44 0 000-2.881z"/>
  </symbol>
  <symbol id="icon-indeed" viewBox="0 0 24 24" fill="currentColor">
    <path d="M19.262 0h-14.5c-.24 0-.45.14-.55.35L0 12l4.212 11.65c.1.2.31.35.55.35h14.5c.24 0 .45-.14.55-.35L24 12l-4.212-11.65c-.1-.2-.31-.35-.526-.35zM7 17.5c-.829 0-1.5-.671-1.5-1.5s.671-1.5 1.5-1.5 1.5.671 1.5 1.5-.671 1.5-1.5 1.5zm11.5-5c0 .829-.671 1.5-1.5 1.5s-1.5-.671-1.5-1.5.671-1.5 1.5-1.5 1.5.671 1.5 1.5zm-5 5c-.829 0-1.5-.671-1.5-1.5s.671-1.5 1.5-1.5 1.5.671 1.5 1.5-.671 1.5-1.5 1.5zm0-10c0 .829-.671 1.5-1.5 1.5s-1.5-.671-1.5-1.5.671-1.5 1.5-1.5 1.5.671 1.5 1.5z"/>
  </symbol>
  <symbol id="icon-render" viewBox="0 0 24 24" fill="currentColor">
    <path d="M19.18 6.45c0-1.84-1.5-3.34-3.34-3.34h-4.01V.2h4.01c2.9 0 5.25 2.35 5.25 5.25v7.6h-1.91V6.45zM3.48 6.45c0-1.84 1.5-3.34 3.34-3.34h3.34V1.2h-3.34C3.93 1.2 1.57 3.55 1.57 6.45v13.37c0 1.84 1.5 3.34 3.34 3.34h4.01v-1.91H4.91c-2.9 0-5.25-2.35-5.25-5.25V6.45zM14.65 17.55c0 1.84-1.5 3.34-3.34 3.34H7.97v1.91h3.34c2.9 0 5.25-2.35 5.25-5.25V9.95h-1.91v7.6zM22.43 17.55c0 1.84-1.5 3.34-3.34 3.34h-3.34v1.91h3.34c2.9 0 5.25-2.35 5.25-5.25V4.18h-1.91v13.37z"/>
  </symbol>
</svg>
